<?xml version="1.0" encoding="UTF-8" standalone="no"?>
<svg xmlns="http://www.w3.org/2000/svg" width="774.19354" height="774.19354">
  <defs>
    <filter id="a" width="1.5" height="1.5" x="-.25" y="-.25" color-interpolation-filters="sRGB">
      <feGaussianBlur result="result1" stdDeviation="4"/>
      <feComposite in="result1" in2="result1" operator="in" result="result4"/>
      <feGaussianBlur in="result4" result="result6" stdDeviation="2"/>
      <feComposite in="result6" in2="result4" operator="xor" result="result8"/>
      <feComposite in="result4" in2="result8" operator="atop" result="fbSourceGraphic"/>
      <feSpecularLighting in="fbSourceGraphic" lighting-color="#fff" result="result1" specularConstant="1.29999995" specularExponent="10" surfaceScale="3">
        <feDistantLight azimuth="235" elevation="55"/>
      </feSpecularLighting>
      <feComposite in="result1" in2="fbSourceGraphic" operator="atop" result="result2"/>
      <feComposite in="fbSourceGraphic" in2="result2" k2="1" k3="1" operator="arithmetic" result="result4"/>
      <feComposite in="result4" in2="SourceGraphic"/>
      <feBlend in2="result2" mode="multiply"/>
    </filter>
  </defs>
  <circle cx="387.09677" cy="387.09677" r="258.06451" fill="#efca67" stroke="#b07400" stroke-width="8.06452" filter="url(#a)" style="font-variation-settings:normal"/>
  <path fill="#efca67" stroke="#b07400" stroke-width="8.06452" d="M387.09678 627.42742c-132.48388 0-240.36291-107.89516-240.36291-240.3629 0-132.48387 107.87903-240.36291 240.36291-240.36291 132.49999 0 240.3629 107.87904 240.3629 240.36291-.0323 132.46774-107.92742 240.3629-240.3629 240.3629z" filter="url(#a)" style="font-variation-settings:normal"/>
  <g transform="translate(129.03226 129.03226)">
    <path fill="#b48d61" d="M258.06452 16.129032C391.44355 16.129032 500 124.66935 500 258.06452 500 391.44355 391.44355 500 258.06452 500 124.68548 500 16.129032 391.44355 16.129032 258.06452c0-133.39517 108.556448-241.935488 241.935488-241.935488m0 3.225807c-131.64517 0-238.709681 107.096771-238.709681 238.709681 0 131.6129 107.096771 238.7258 238.709681 238.7258 131.6129 0 238.7258-107.10484 238.7258-238.7258 0-131.64517-107.1129-238.709681-238.7258-238.709681z"/>
    <path fill="#efca67" stroke="#b07400" stroke-width="8.06452" d="M415.8871 187.29839c-.84678-24.29033-16.31452-35.64516-38.87097-40.65323 6.74193 14.67742 10.24193 25.81452 38.87097 40.65323zm-91.29033 238.98387s16.75807.83871 24.12904-1.41936c11.53225-3.55645 50.62096-6.26613 50.62096-6.26613s-19.81451 19.37097-43.16935 20.29033c-21.62097.75806-49.22581-5.10484-49.22581-5.10484z" filter="url(#a)" style="font-variation-settings:normal"/>
    <path fill="#efca67" stroke="#b07400" stroke-width="8.06452" d="M226.48387 458.85484c2.54839-.28226 38.47581-16.37904 59.42742-26.20968 21.04032-9.95161 28.09677-16.06452 32.70161-23.37097 16.34678-25.51613 36.07258-25.76613 36.07258-25.76613s-1.73387 23.87904-28.04032 44.35484c-10.99194 8.57258-14.27419 5.41936-30.20968 12.28226-16 6.87097-46.40322 25.51613-46.40322 25.51613zm213.47581-65.39516s-9.91129 18.27419-30.17742 19.91129c-7.65323.56451-46.23387 1.38709-46.23387 1.38709s18.65322-17.64516 25.75806-17.89516c43.91129-.94355 50.65323-3.40322 50.65323-3.40322zM459.64516 339.75c-3.05645 23.71774-9.16936 46.27419-61.83871 50.43548 0 0 15.94355-20.16129 25.26613-25.01613 18.39516-9.38709 36.57258-25.41935 36.57258-25.41935zm-58.18548-23.08871c19.02419 22.34677 13.41935 45.74193-11.91129 72.1371 0 0-3.2742-22.04839 2.08064-31.18549 1.89516-3.21774 9.23387-29.6129 9.83065-40.95161zm19.5 40.50806c36.00806-15.46774 42.46774-45.33064 42.84677-76.54838l-2.04839 4.91129s-18.90322 15.37096-25.76613 25.99193c-6.42742 9.91936-15.03225 45.64516-15.03225 45.64516zM460.5 212.3871c.18548 9.16935 14.56451 58.29838-19.81452 83.48387 0 0-4.90322-28.43549 0-49.34678C445.69355 225.64516 460.5 212.3871 460.5 212.3871Zm-22.68549-52.29033s14.93549 19.81452 14.67742 39.20162c-.18548 19.37096-15.56451 38.38709-15.56451 38.38709-5.20968-21.51613-6.70968-37.06451-3.33871-50.20161 2.1129-8.37903 4.60484-17.35484 4.2258-27.3871zm-13.10483 25.32258c12.66129-26.2258 3.33871-46.60483-21.04033-64.9758-.41129 27.3629 9.10484 46.51613 21.04033 64.9758zm-25.76613-45.12903s3.53226-17.78226-5.91936-30.35484c-6.49193-8.77419-26.90322-23.233867-26.90322-23.233867s1.25806 18.225807 10.08064 31.217737c2.89516 4.14517 10.70968 8.17742 14.94355 11.75 4.14516 3.61291 7.79839 10.62097 7.79839 10.62097zm-64.48387-74.233869c23.53225 10.064516 24.60483 21.330645 27.40322 32.491936-12.12903-9.322581-25.99193-17.806452-27.40322-32.491936Zm-3.37097 10.556452c-11.71774-6.064516-21.99194-13.419355-27-26.16129 17.07258 6.185484 27.87903 14.314516 27 26.16129zm-25.45968-9.967742c-5.87097-4.282258-8.66129-10.524193-27.12097-6.806452 4.19355 5.717742 14.58871 7.024194 27.12097 6.806452zm28.48387 18.064516c-6.92742-10.314516-22.27419-12.096774-41.04838-10.379032 9.13709 8.532258 22.20967 12.629032 41.04838 10.379032zm29.41936 23.943553c-21.48387-.45968-42.08871-1.65323-49.23387-13.967746 26.6129-5.758065 39.08871 2.98387 49.23387 13.967746zm28.88709 33.89516S386.33871 127 373.39516 120.84677c-6.08065-2.94354-30.77419-6.3629-30.77419-6.3629 6.12096 7.48387 11.4758 16.58871 22.70967 20.3629 9.73387 3.32258 19.15323 4.53226 27.08871 7.70162zm37.49194 98.03225c.48387-37.21774-20.6371-48.57258-43.87097-57.34677 0 0 12.92742 20.87097 17.64516 30.25806 4.1371 8.12097 26.22581 27.08871 26.22581 27.08871zm3.14516 43.37904s5.32258-14.41129-2.23387-30.25807c-7.53226-15.76613-27.94355-33-27.94355-33s-1.22581 28.5242 10.29839 41.58065c4.41129 4.98387 19.87903 21.67742 19.87903 21.67742zm-26.62097-22.11291c22.08065 18.08065 23.94355 44.22581 13.48387 75.54033-16.25-21.73388-17.51613-47.82258-13.48387-75.54033zM139.12903 146.64516c-22.58871 5.00807-38.00806 16.3629-38.93548 40.65323 28.70968-14.80646 32.19355-25.94355 38.93548-40.65323zm70 287.1371s-27.58064 5.8629-49.19355 5.10484c-23.38709-.97581-43.16129-20.29033-43.16129-20.29033s39.06452 2.70968 50.6371 6.20968c7.3871 2.23387 24.16129 1.41935 24.16129 1.41935z" filter="url(#a)" style="font-variation-settings:normal"/>
    <path fill="#efca67" stroke="#b07400" stroke-width="8.06452" d="M266.06452 465.66129s-30.4113-18.58871-46.35484-25.51613c-15.87904-6.87097-19.20162-3.71774-30.22581-12.28226-26.32258-20.41129-28.06452-44.35484-28.06452-44.35484s19.75.31452 36.16129 25.83065c4.54839 7.30645 11.58065 13.41935 32.60484 23.37097 20.98387 9.83064 56.92742 25.92742 59.50807 26.20967zM126.87097 396.8629c7.02419.31452 25.70967 17.89516 25.70967 17.89516s-38.60483-.75806-46.2258-1.38709c-20.258066-1.57258-30.129034-19.81452-30.129034-19.81452s6.701613 2.3629 50.645164 3.30645zm-33.846777-31.69355c9.354837 4.75807 25.266127 24.91936 25.266127 24.91936-52.637094-4.12903-58.733869-26.62097-61.838707-50.43549.03226.0968 18.225806 16.12904 36.57258 25.51613zm31.427417-7.49193c5.35484 9.13709 2.09678 31.12097 2.09678 31.12097-25.31452-26.39517-30.903229-49.70968-11.96775-72.1371.6371 11.33871 7.99194 37.73387 9.87097 41.01613zm-44.322578-46.15323c-6.870968-10.6129-25.677419-25.99193-25.677419-25.99193l-2.096774-4.91129c.41129 31.21774 6.838709 61.08064 42.814515 76.54838-.03226 0-8.620967-35.7258-15.040322-45.64516zm-4.685484-64.9758c4.943548 20.87096 0 49.32258 0 49.32258-34.419355-25.15323-20-74.31452-19.862903-83.45968.0081.008 14.870968 13.26613 19.862903 34.1371zm7.104839-59.03226c3.354838 13.10484 1.846774 28.65322-3.354839 50.16935 0 0-15.354839-18.98387-15.612903-38.35484-.266129-19.38709 14.741935-39.23387 14.741935-39.23387-.419354 10.06452 2.104839 19.00807 4.225807 27.41936zm29.959673-67.06452C88 138.81452 78.733871 159.20161 91.387096 185.42742c11.967744-18.46774 21.483874-37.62097 21.120964-64.97581Zm12.45968 9.25807c4.25-3.60484 12.12903-7.6371 14.93549-11.78226C148.77419 104.96774 150 86.709677 150 86.709677s-20.41129 14.459673-26.90323 23.233873c-9.45161 12.60484-5.93548 30.35484-5.93548 30.35484s3.64516-6.98387 7.80645-10.58871zm29.29839-31.153229c2.80645-11.169355 3.8871-22.427419 27.37903-32.491935-1.41935 14.677419-15.21774 23.16129-27.37903 32.491935zm57.7258-48.104838c-4.92741 12.741935-15.28225 20.129032-26.93548 26.16129-.92742-11.814516 9.87903-19.943548 26.93548-26.16129zm25.66129 9.419355c-18.49193-3.75-21.29838 2.524193-27.13709 6.774193 12.51613.217742 22.92742-1.056452 27.13709-6.774193zm-14.52419 14.491935c-18.80645-1.685484-34.19355.096774-41.12903 10.379032 18.83871 2.25 31.92742-1.879032 41.12903-10.379032zm-21.23387 20.314516c-7.21774 12.314521-27.83064 13.516131-49.25 13.967741 10.09677-10.975806 22.49194-19.685483 49.25-13.967741zm-51.09677 40.201611c11.20161-3.78226 16.52419-12.83871 22.65322-20.33064 0 0-24.65322 3.38709-30.77419 6.33064-12.90323 6.19355-18.99194 21.67742-18.99194 21.67742 7.95968-3.14516 17.34678-4.35484 27.11291-7.67742zm-38.32258 78.66936c4.70967-9.41936 17.62903-30.25807 17.62903-30.25807C106.83871 192.03226 85.75 203.3871 86.25 240.60484c0 .008 22.10484-18.99194 26.22581-27.05645zm-9.50807 48.76613c11.60484-13.09678 10.3629-41.61291 10.3629-41.61291s-20.459673 17.23387-28.00806 33c-7.548387 15.84678-2.282258 30.25807-2.282258 30.25807s15.483871-16.66129 19.927418-21.64516zm-6.774192 75.07258c-10.475806-31.37904-8.524193-57.45968 13.548392-75.54033 4 27.71775 2.76612 53.80645-13.548392 75.54033zm174.082082-18.61037c-3.47289.60397-7.24776.90596-11.47562.90596-8.9087 0-15.40149-1.05696-19.62934-3.01989-13.28755-6.34179-22.64924-14.04253-28.23606-23.25323-3.92586-6.64378-6.49277-15.55248-7.24775-26.57511-.60398-9.05969 1.66094-18.57237 6.64378-28.53804 4.37884-8.60671 9.81466-16.00546 16.60944-22.34725 6.79477-6.3418 14.49552-12.83457 23.10223-19.17636-.45299-2.41592-1.20796-6.94576-1.96294-13.89153-.60397-6.49279-.75497-11.02264-.75497-13.43855 0-17.66642 2.41592-25.97113 10.41865-38.8057 5.13383-8.15373 9.66367-12.38159 13.43855-12.38159 3.17089 0 6.49278 4.52985 10.41865 13.89153 3.92587 9.36169 5.8888 17.36442 6.19079 24.0082.30199 18.1194-2.86891 26.12212-10.11666 38.6547-1.96294 3.0199-9.51268 13.58954-14.7975 17.81741-1.96294 1.35895-3.77488 2.8689-5.58682 4.37885l4.68085 27.33008c1.20795-.15099 2.7179-.30198 4.22785-.30198 8.75771 0 15.40149 1.81194 20.08233 5.28482 8.90871 6.49278 13.89153 15.70347 14.79751 27.78307 1.66094 20.38432-12.0796 34.57784-27.17909 40.76863 1.20796 8.60672 2.56691 16.60946 3.77487 24.46119.75498 4.68084.90597 8.75771.90597 12.07959 0 4.52984-.75497 8.00273-2.11393 10.56964-5.28482 9.66368-13.28756 14.94851-23.8572 15.55248-6.34178.45299-12.53258-.90597-18.72338-3.92587-7.54974-3.62387-11.6266-8.90869-12.07959-15.85447-.30199-5.13382.75498-9.51268 3.01991-13.13654 2.7179-4.22786 6.79476-6.3418 11.92859-6.64379 7.70075-.60397 14.94849 6.0398 15.55248 13.13656.60398 8.45571-4.52985 14.19351-15.85447 17.36442 2.56691 3.62388 7.70074 5.43581 15.40148 5.43581 9.36169 0 17.51542-6.49278 21.13929-12.83456 1.35896-2.41592 1.96294-6.1908 1.96294-11.17363 0-3.0199-.15099-6.34178-.75498-10.11665-1.20796-8.00274-2.7179-16.00548-3.92586-24.0082zm3.0199-178.77801c-14.34452 0-20.38432 26.42411-20.38432 43.18454 0 3.62389.30199 7.24776.75498 10.72064 7.54974-5.8888 13.89153-12.38158 19.17635-19.32734 6.49278-8.60672 9.51268-16.00547 9.0597-22.34726-.60399-8.15373-3.47288-12.38158-8.60671-12.23058zm-8.30473 123.81585 8.15373 49.22435c12.0796-4.07687 17.51542-13.28756 16.45845-27.78308-1.05696-14.9485-9.36169-22.04526-24.61218-21.44127zm-3.62388.30199c-11.17362.30198-19.93132 7.54973-19.32735 19.17635.30199 6.94576 6.49279 14.9485 11.32463 17.36442-.45299.30199-1.05697.75497-1.50996 1.50995-10.56964-4.98284-17.51541-13.28755-18.57237-25.97114-.75498-11.02262 6.34178-20.38431 13.28755-25.66913 3.47289-2.56692 7.39875-4.37886 11.77761-5.43582l-4.37886-25.66914c-3.17089 1.96294-7.85173 5.58681-13.89153 11.02264-7.54975 6.64377-12.98556 12.68356-16.45845 17.96839-7.39875 11.32462-10.72064 21.13929-10.11666 29.44401.75498 10.26766 5.28482 19.17636 14.04253 26.57512 8.75771 7.39875 18.87437 11.02262 30.65198 11.02262 3.77487 0 7.54974-.45298 11.32461-1.35895-2.8689-16.76044-5.43581-33.36988-8.15373-49.97932z" filter="url(#a)" style="font-variation-settings:normal"/>
  </g>
</svg>