<?xml version="1.0" encoding="UTF-8" standalone="no"?>
<svg
   version="1"
   viewBox="0 0 43.146198 44"
   enable-background="new 0 0 48 48"
   id="svg240"
   sodipodi:docname="Options.svg"
   inkscape:version="1.2.2 (732a01da63, 2022-12-09)"
   width="43.146198"
   height="44"
   xmlns:inkscape="http://www.inkscape.org/namespaces/inkscape"
   xmlns:sodipodi="http://sodipodi.sourceforge.net/DTD/sodipodi-0.dtd"
   xmlns="http://www.w3.org/2000/svg"
   xmlns:svg="http://www.w3.org/2000/svg">
  <defs
     id="defs244" />
  <sodipodi:namedview
     id="namedview242"
     pagecolor="#ffffff"
     bordercolor="#000000"
     borderopacity="0.25"
     inkscape:showpageshadow="2"
     inkscape:pageopacity="0.0"
     inkscape:pagecheckerboard="0"
     inkscape:deskcolor="#d1d1d1"
     showgrid="false"
     inkscape:zoom="21.395833"
     inkscape:cx="22.083739"
     inkscape:cy="20.260954"
     inkscape:window-width="2560"
     inkscape:window-height="1365"
     inkscape:window-x="-9"
     inkscape:window-y="-9"
     inkscape:window-maximized="1"
     inkscape:current-layer="svg240">
    <sodipodi:guide
       position="-0.050000001,44"
       orientation="0,48"
       id="guide305"
       inkscape:locked="false" />
    <sodipodi:guide
       position="47.95,44"
       orientation="48,0"
       id="guide307"
       inkscape:locked="false" />
    <sodipodi:guide
       position="47.95,-4.0000001"
       orientation="0,-48"
       id="guide309"
       inkscape:locked="false" />
    <sodipodi:guide
       position="-0.050000001,-4.0000001"
       orientation="-48,0"
       id="guide311"
       inkscape:locked="false" />
  </sodipodi:namedview>
  <path
     fill="#607d8b"
     d="m 33.84192,21.446034 c 0.07806,-0.546489 0.156144,-1.092979 0.156144,-1.717539 0,-0.624558 -0.07806,-1.17105 -0.156144,-1.717539 l 3.513147,-2.498239 c 0.31228,-0.234209 0.46842,-0.702628 0.23421,-1.092979 L 34.1542,8.6425655 C 33.919991,8.2522161 33.52964,8.0960751 33.139291,8.3302875 L 29.235794,10.125894 C 28.298954,9.423264 27.362115,8.8767745 26.269136,8.4083555 L 25.878786,4.1145086 C 25.800717,3.7241592 25.488437,3.4118794 25.098087,3.4118794 h -6.714016 c -0.390349,0 -0.780698,0.3122798 -0.780698,0.7026292 l -0.39035,4.2938469 C 16.120045,8.8767745 15.105135,9.423264 14.246367,10.125894 L 10.342869,8.3302875 c -0.3903495,-0.1561444 -0.858769,0 -1.014909,0.312278 L 5.970952,14.419738 c -0.234209,0.390351 -0.07806,0.85877 0.23421,1.092979 l 3.5131475,2.498239 c -0.078061,0.546489 -0.1561445,1.092981 -0.1561445,1.717539 0,0.62456 0.07806,1.17105 0.1561445,1.717539 L 6.049023,23.944273 c -0.31228,0.234209 -0.468421,0.702628 -0.23421,1.092979 l 3.357007,5.777174 c 0.234209,0.390351 0.6245605,0.54649 1.014908,0.31228 l 3.9035,-1.795609 c 0.936838,0.70263 1.873676,1.24912 2.966656,1.717539 l 0.390348,4.293848 c 0.07806,0.390349 0.390351,0.702629 0.7807,0.702629 h 6.714015 c 0.390351,0 0.7807,-0.31228 0.7807,-0.702629 l 0.39035,-4.293848 c 1.092978,-0.468419 2.107888,-1.014909 2.966658,-1.717539 l 3.903497,1.795609 c 0.390349,0.156144 0.858768,0 1.014907,-0.31228 l 3.357008,-5.777174 c 0.23421,-0.390351 0.07806,-0.85877 -0.234209,-1.092979 z M 21.66301,27.53549 c -4.293846,0 -7.806994,-3.513147 -7.806994,-7.806995 0,-4.293846 3.513148,-7.806994 7.806994,-7.806994 4.293846,0 7.806993,3.513148 7.806993,7.806994 0,4.293848 -3.513147,7.806995 -7.806993,7.806995 z"
     id="path236"
     style="stroke-width:0.780698;fill:#767676;fill-opacity:1" />
  <path
     fill="#455a64"
     d="m 21.66301,10.360104 c -5.152616,0 -9.368392,4.215775 -9.368392,9.368391 0,5.152616 4.215776,9.368394 9.368392,9.368394 5.152616,0 9.368392,-4.215778 9.368392,-9.368394 0,-5.152616 -4.215776,-9.368391 -9.368392,-9.368391 z m 0,13.271889 c -2.18596,0 -3.903498,-1.71754 -3.903498,-3.903498 0,-2.185958 1.717538,-3.903498 3.903498,-3.903498 2.185958,0 3.903497,1.71754 3.903497,3.903498 0,2.185958 -1.717539,3.903498 -3.903497,3.903498 z"
     id="path238"
     style="stroke-width:0.780698;fill:#555555;fill-opacity:1" />
</svg>
