<?xml version="1.0" encoding="UTF-8" standalone="no"?>
<svg
   version="1.1"
   x="0px"
   y="0px"
   viewBox="0 0 20.000002 20.027035"
   enable-background="new 0 0 1000 1000"
   id="svg8"
   sodipodi:docname="pin.svg"
   width="20.000002"
   height="20.027035"
   inkscape:version="1.2.2 (732a01da63, 2022-12-09)"
   xml:space="preserve"
   xmlns:inkscape="http://www.inkscape.org/namespaces/inkscape"
   xmlns:sodipodi="http://sodipodi.sourceforge.net/DTD/sodipodi-0.dtd"
   xmlns="http://www.w3.org/2000/svg"
   xmlns:svg="http://www.w3.org/2000/svg"><defs
     id="defs12" /><sodipodi:namedview
     id="namedview10"
     pagecolor="#ffffff"
     bordercolor="#000000"
     borderopacity="0.25"
     inkscape:showpageshadow="2"
     inkscape:pageopacity="0.0"
     inkscape:pagecheckerboard="0"
     inkscape:deskcolor="#d1d1d1"
     showgrid="false"
     inkscape:zoom="11.619179"
     inkscape:cx="9.6822679"
     inkscape:cy="14.674015"
     inkscape:window-width="2560"
     inkscape:window-height="1365"
     inkscape:window-x="-9"
     inkscape:window-y="-9"
     inkscape:window-maximized="1"
     inkscape:current-layer="svg8" /><g
     id="g30"
     transform="matrix(0.02040796,0,0,0.02040796,-0.2040796,-0.19041341)"
     style="fill:#ffffff"><g
       transform="matrix(0.1,0,0,-0.1,0,511)"
       id="g28"
       style="fill:#ffffff"><path
         d="m 6663.2,4984.8 c -127.4,-55.5 -334.8,-320.4 -451.9,-575.2 -127.4,-273.2 -164.3,-456 -164.3,-803.2 0,-260.9 8.2,-332.8 47.2,-472.5 217.8,-755.9 891.5,-1505.7 1647.5,-1828.2 451.9,-193.1 875.1,-215.7 1335.2,-67.8 382.1,121.2 778.6,414.9 813.5,601.9 84.2,456 -386.2,1290 -1164.7,2058.3 -318.4,312.2 -517.7,478.6 -819.6,682 -524,351.3 -1006.7,509.5 -1242.9,404.7 z M 7686.1,4235 c 213.6,-108.9 482.7,-324.6 797,-636.8 435.5,-435.5 690.2,-803.2 712.8,-1025 10.3,-125.3 -22.6,-158.2 -150,-143.8 -221.8,26.7 -585.4,281.4 -1018.9,712.8 -312.2,314.3 -525.9,581.3 -636.8,797 -74,145.8 -98.6,297.9 -57.5,347.1 41.2,49.4 199.4,26.8 353.4,-51.3 z"
         id="path20"
         style="fill:#ffffff" /><path
         d="M 5143,2616.3 C 4804.1,2376 4504.1,2150 4475.4,2115.1 c -74,-94.5 -84.2,-328.7 -20.5,-536.1 205.4,-678 942.9,-1501.7 1674.2,-1865.3 275.3,-137.6 431.4,-184.9 616.3,-184.9 228,2.1 252.7,22.6 595.7,505.3 168.4,236.2 367.7,517.7 445.8,624.5 76,106.8 139.7,199.3 139.7,207.5 0,6.2 -67.8,32.9 -147.9,57.5 -439.6,141.7 -998.3,525.9 -1347.5,930.6 -262.9,304 -501.2,704.6 -618.3,1045.6 l -53.4,154.1 z"
         id="path22"
         style="fill:#ffffff" /><path
         d="M 3212.1,2384.2 C 2858.8,2328.7 2523.9,2187 2240.5,1973.4 1854.3,1683.8 1722.8,1418.8 1722.8,929.9 c 0,-408.8 100.7,-782.6 341,-1273.6 655.3,-1331.1 2085,-2526.7 3336,-2789.6 213.7,-43.2 601.9,-49.3 760.1,-10.3 211.6,51.4 390.3,152 540.3,304 297.9,302 484.8,667.6 558.7,1092.8 49.3,273.2 39,710.7 -22.6,1010.7 l -10.3,55.4 -123.3,-63.7 c -456,-234.2 -1271.6,84.2 -2027.5,797 -332.8,314.3 -675.8,778.5 -838.1,1131.9 -199.2,435.5 -223.9,836.1 -67.8,1088.7 l 39,65.7 -127.4,24.7 c -170.4,30.8 -712.7,43.2 -868.8,20.6 z"
         id="path24"
         style="fill:#ffffff" /><path
         d="M 1948.8,-2445.2 C 1603.7,-2841.7 1047,-3482.6 712.1,-3868.8 151.4,-4509.7 100,-4575.4 100,-4643.2 c 0,-106.8 96.6,-180.8 191,-143.8 24.7,10.3 423.2,349.2 887.4,751.8 464.3,404.7 1082.6,942.9 1376.3,1197.6 293.7,254.7 550.5,476.6 571.1,495.1 32.9,32.9 18.5,51.4 -256.8,326.6 -160.2,160.2 -291.7,291.7 -293.7,291.7 0,0 -281.4,-324.6 -626.5,-721 z"
         id="path26"
         style="fill:#ffffff" /></g></g></svg>
